<svg width="160" height="42" viewBox="0 0 160 42" fill="none" xmlns="http://www.w3.org/2000/svg"> <path d="M32.5922 37.8598L31.281 36.5486C25.625 39.7816 18.7255 38.8077 14.0733 34.1555L12.3924 32.4746C10.8925 32.4564 9.3105 32.3561 8.03711 31.8223L12.2218 36.007C17.9065 41.6917 26.6471 42.5068 33.2145 38.4509C32.9997 38.2595 32.7953 38.0629 32.5922 37.8598Z" fill="white"></path> <path d="M21.4809 26.7482C21.0252 26.2925 20.4445 25.9709 19.9289 25.6116C17.0475 27.174 13.6896 27.7313 10.5269 27.1844C8.1273 26.7691 5.79275 25.7704 3.81496 24.1337C5.79275 22.4971 8.09214 21.4867 10.4918 21.0714C13.6544 20.5232 16.9603 21.0401 19.8417 22.6026C20.645 23.0361 21.5018 23.4606 22.2205 24.0608C22.572 24.346 23.003 24.5673 23.3324 24.8967L24.2256 25.7899L26.0771 27.6414L31.6655 33.2298L33.4766 35.0409L33.5169 35.0812L34.4427 36.007C34.7422 36.3065 34.9609 36.688 35.276 36.9666C35.9648 37.5512 36.5442 38.0316 37.2928 38.4978C43.859 42.5536 52.4615 41.6917 58.1462 36.007L62.3309 31.8223C61.0563 32.3561 59.4756 32.455 57.9756 32.4746L56.2947 34.1555C51.6425 38.8077 44.5686 39.6071 39.087 36.5486C38.3201 36.1229 37.6874 35.727 36.8905 35.0409L38.7016 33.2298L44.29 27.6414C44.2678 27.6636 44.0126 27.0594 43.7015 26.7482L42.5908 25.6376L36.8515 31.3783L35.1848 33.0449L33.5182 31.3783L27.9625 25.8225L25.9261 23.7861L27.5927 22.1195L33.3334 16.3788L31.4819 14.5273L25.7073 20.3019L23.8559 22.1534C23.434 21.8344 22.5486 21.1417 21.8078 20.6834C19.1816 19.0649 16.2546 18.2707 13.2612 18.2108C11.8798 18.1848 10.4215 18.2525 9.06997 18.5597C6.04013 19.2407 3.09754 20.6899 0.740859 23.0452L0 23.7861L1.11064 24.8967C3.46601 27.2521 6.29403 28.8172 9.32386 29.4981C10.6754 29.8054 12.0178 29.989 13.3992 29.9629C16.3913 29.9044 19.3586 29.0711 22.0838 27.3524L21.4809 26.7482Z" fill="white"></path> <path d="M13.7042 13.7862C18.0087 9.48168 24.3848 8.48303 29.6567 10.7798C32.4496 12.1834 33.8024 13.1443 36.4507 15.7913L37.2228 16.5634L42.7786 22.1192L44.6301 23.9707L45.5558 24.8965C45.867 25.2076 46.0923 25.597 46.423 25.8821C47.1039 26.4602 47.7771 27.0318 48.518 27.4914C51.1442 29.1098 54.0946 29.9744 57.0866 30.033C58.4681 30.059 59.7532 29.8403 61.1047 29.533C64.1345 28.852 66.904 27.2518 69.2593 24.8965L70.37 23.7858L69.6291 23.045C67.2737 20.6896 64.3064 19.2639 61.2779 18.5816C59.9264 18.2743 58.4915 18.1832 57.1101 18.2092C54.118 18.2678 51.2132 19.0399 48.587 20.6583C47.8461 21.118 46.9373 21.8328 46.5154 22.1518L44.6639 20.3003L39.0743 14.712L37.2632 12.9008C37.6889 12.5857 38.6928 11.8188 39.4597 11.3931C44.9413 8.33329 52.0152 9.13404 56.6661 13.7862L58.347 15.4671C59.4772 15.8564 61.0578 15.9554 62.7023 16.1195L58.5176 11.9334C52.8329 6.24874 43.9999 5.52741 37.4337 9.58194C36.6851 10.0481 35.9208 10.621 35.232 11.2056C34.5432 10.621 33.7086 10.0246 32.9613 9.5585C26.3938 5.50397 17.5374 6.24874 11.8527 11.9334L7.66797 16.1181C9.31244 15.9554 10.8944 15.8551 12.0233 15.4658L13.7042 13.7862ZM59.8886 21.0815C62.2883 21.4969 64.5994 22.5189 66.5772 24.1556C64.5994 25.7923 62.2883 26.8144 59.8886 27.2297C56.726 27.7779 53.4149 27.2662 50.5335 25.7037C49.7301 25.2701 48.9632 24.7558 48.2445 24.1556C48.9632 23.5554 49.7301 23.0411 50.5335 22.6075C53.4149 21.045 56.7247 20.5333 59.8886 21.0815Z" fill="white"></path> <path d="M95.9314 16.0584V27.6995L97.5113 27.7826V30H90.9147V27.8935L91.8293 27.8104C92.3652 27.7549 92.6331 27.4593 92.6331 26.9234V19.2181C92.6331 18.904 92.5777 18.6915 92.4668 18.5806C92.3744 18.4698 92.1989 18.4143 91.9402 18.4143L90.9701 18.3589V16.0584H95.9314ZM92.4391 13.6747C92.0511 13.2867 91.857 12.797 91.857 12.2058C91.857 11.6145 92.0511 11.1248 92.4391 10.7368C92.8271 10.3302 93.3353 10.127 93.9635 10.127C94.5918 10.127 95.0999 10.3302 95.4879 10.7368C95.8945 11.1248 96.0977 11.6145 96.0977 12.2058C96.0977 12.797 95.8945 13.2867 95.4879 13.6747C95.0999 14.0443 94.5918 14.2291 93.9635 14.2291C93.3353 14.2291 92.8271 14.0443 92.4391 13.6747ZM111.561 16.6127V26.9234C111.561 27.2191 111.607 27.4223 111.7 27.5332C111.81 27.6441 111.995 27.7087 112.254 27.7272L113.141 27.7826V30H108.734V28.3924L108.651 28.3647C107.727 29.6951 106.461 30.3603 104.853 30.3603C102.969 30.3603 101.574 29.7598 100.668 28.5587C99.7628 27.3577 99.3101 25.7131 99.3101 23.6251C99.3101 21.1121 99.9198 19.1535 101.139 17.7491C102.359 16.3448 104.188 15.6426 106.627 15.6426C108.198 15.6426 109.842 15.966 111.561 16.6127ZM108.346 25.593V18.4143C107.828 18.1741 107.117 18.054 106.212 18.054C104.974 18.054 104.077 18.5529 103.523 19.5507C102.969 20.5485 102.692 21.8697 102.692 23.5142C102.692 26.5077 103.652 28.0044 105.574 28.0044C106.387 28.0044 107.052 27.7642 107.57 27.2837C108.087 26.7848 108.346 26.2213 108.346 25.593ZM127.176 29.9723C127.01 32.0233 126.419 33.5293 125.402 34.4901C124.386 35.451 122.797 35.9314 120.635 35.9314C118.473 35.9314 116.782 35.6265 115.563 35.0168V31.1641L118.196 30.9424V32.2728C118.196 32.7717 118.427 33.1043 118.889 33.2706C119.351 33.4554 119.988 33.5478 120.801 33.5478C121.984 33.5478 122.815 33.1874 123.296 32.4668C123.776 31.7646 124.016 30.7668 124.016 29.4734V27.9489C123.129 28.9837 121.901 29.5011 120.33 29.5011C119.369 29.5011 118.519 29.3163 117.78 28.9468C117.059 28.5772 116.496 28.0783 116.089 27.45C115.295 26.1935 114.898 24.7153 114.898 23.0153C114.898 20.5947 115.554 18.7654 116.865 17.5274C118.177 16.2709 119.924 15.6426 122.104 15.6426C123.915 15.6426 125.624 15.9845 127.232 16.6682V26.9511C127.232 28.5218 127.213 29.5288 127.176 29.9723ZM124.016 24.3458V18.3866C123.37 18.1649 122.631 18.054 121.799 18.054C120.672 18.054 119.803 18.4698 119.194 19.3013C118.602 20.1328 118.307 21.2599 118.307 22.6827C118.307 25.6023 119.268 27.062 121.189 27.062C121.984 27.062 122.649 26.8218 123.185 26.3414C123.739 25.8425 124.016 25.1773 124.016 24.3458ZM136.023 27.9767C138.037 27.9767 139.044 26.3506 139.044 23.0985C139.044 21.454 138.813 20.2067 138.351 19.3567C137.908 18.5067 137.15 18.0817 136.078 18.0817C135.025 18.0817 134.249 18.4883 133.75 19.3013C133.251 20.1143 133.002 21.223 133.002 22.6273C133.002 25.2327 133.482 26.868 134.443 27.5332C134.868 27.8288 135.395 27.9767 136.023 27.9767ZM129.648 23.0153C129.648 21.648 129.851 20.4654 130.258 19.4676C130.664 18.4513 131.209 17.6752 131.893 17.1394C133.205 16.1416 134.655 15.6426 136.245 15.6426C137.353 15.6426 138.286 15.8274 139.044 16.197C139.82 16.5481 140.421 16.9638 140.846 17.4442C141.289 17.9062 141.659 18.5899 141.954 19.4953C142.268 20.3822 142.425 21.4355 142.425 22.655C142.425 25.205 141.806 27.1359 140.568 28.4479C139.33 29.7598 137.741 30.4158 135.801 30.4158C133.879 30.4158 132.373 29.7967 131.283 28.5587C130.193 27.3022 129.648 25.4544 129.648 23.0153ZM144.125 18.2758V16.0584H148.809V17.86C149.29 17.1763 149.927 16.6405 150.722 16.2524C151.516 15.8459 152.375 15.6426 153.299 15.6426C154.704 15.6426 155.785 16.0492 156.542 16.8622C157.318 17.6567 157.706 18.8578 157.706 20.4654V27.6995L159.286 27.7826V30H152.69V27.8935L153.604 27.8104C153.881 27.7734 154.085 27.6995 154.214 27.5886C154.343 27.4593 154.408 27.2283 154.408 26.8957V21.186C154.408 20.1697 154.251 19.4214 153.937 18.941C153.623 18.4421 153.022 18.1926 152.135 18.1926C151.267 18.1926 150.574 18.4698 150.056 19.0241C149.539 19.5784 149.28 20.2344 149.28 20.992V27.6995L150.86 27.7826V30H144.264V27.8935L145.178 27.8104C145.455 27.7734 145.659 27.6995 145.788 27.5886C145.917 27.4593 145.982 27.2283 145.982 26.8957V19.2181C145.982 18.6638 145.751 18.3774 145.289 18.3589L144.125 18.2758Z" fill="white"></path> </svg>