<svg xmlns="http://www.w3.org/2000/svg" viewBox="0 0 46 23" width="46" height="23"><path d="M21.421 19.939l-.799-.799c-3.445 1.97-7.648 1.376-10.482-1.458l-1.024-1.024c-.914-.011-1.877-.072-2.653-.397l2.549 2.549c3.463 3.463 8.787 3.959 12.788 1.489a8.95 8.95 0 0 1-.379-.36zm-6.769-6.769c-.278-.278-.631-.473-.945-.692a8.92 8.92 0 0 1-5.727.958c-1.462-.253-2.884-.861-4.089-1.858 1.205-.997 2.605-1.612 4.067-1.865 1.927-.334 3.94-.019 5.696.933.489.264 1.011.523 1.449.888.214.174.477.309.677.509l.544.544 1.128 1.128 3.404 3.404 1.103 1.103.025.025.564.564c.183.183.316.415.508.585.42.356.773.649 1.229.933 4 2.471 9.24 1.946 12.703-1.517l2.549-2.549c-.776.325-1.739.385-2.653.397l-1.024 1.024c-2.834 2.834-7.143 3.321-10.482 1.458a7.3 7.3 0 0 1-1.338-.919l1.103-1.103 3.404-3.404c.02-.074-.169-.355-.359-.544l-.677-.677-3.496 3.497L23 17.006l-1.015-1.015-3.384-3.384-1.241-1.24 1.015-1.015 3.497-3.497-1.128-1.128-3.518 3.518-1.128 1.128c-.257-.194-.796-.616-1.248-.895-1.6-.986-3.383-1.47-5.206-1.506-.841-.016-1.73.025-2.553.213-1.846.415-3.638 1.298-5.074 2.732l-.451.451.677.676c1.435 1.435 3.157 2.388 5.003 2.803.823.187 1.641.299 2.483.283 1.823-.036 3.63-.543 5.29-1.59l-.367-.368zM9.915 5.274c2.622-2.622 6.506-3.23 9.718-1.831 1.701.855 2.525 1.44 4.139 3.053l.47.47 3.384 3.384 1.128 1.128.564.564c.19.19.327.427.528.6l1.276.98c1.6.986 3.397 1.513 5.22 1.548.842.016 1.624-.117 2.448-.304 1.846-.415 3.533-1.39 4.967-2.824l.677-.677-.451-.451c-1.435-1.435-3.242-2.303-5.087-2.719-.823-.187-1.697-.243-2.539-.227-1.823.036-3.592.506-5.192 1.492-.451.28-1.005.715-1.262.91l-1.128-1.128-3.405-3.404-1.103-1.103 1.338-.918a8.79 8.79 0 0 1 10.481 1.458l1.024 1.024c.689.237 1.651.297 2.653.397l-2.549-2.55C33.75.683 28.37.243 24.37 2.713c-.456.284-.922.633-1.341.989-.42-.356-.928-.719-1.383-1.003C17.645.229 12.25.683 8.787 4.146L6.238 6.695c1.002-.099 1.965-.16 2.653-.397l1.024-1.023zm28.134 4.444a8.7 8.7 0 0 1 4.074 1.873 8.7 8.7 0 0 1-4.074 1.873c-1.927.334-3.943.022-5.699-.93a8.38 8.38 0 0 1-1.394-.943 8.37 8.37 0 0 1 1.394-.943 8.82 8.82 0 0 1 5.699-.93z"/></svg>